<svg width="23" height="22" viewBox="0 0 23 22" fill="none" xmlns="http://www.w3.org/2000/svg">
<g id="emoji">
<g id="&#240;&#159;&#166;&#134; emoji &#34;waving hand sign&#34;">
<path id="Vector" d="M5.60888 16.8673C5.4285 16.8376 5.28396 16.8066 5.10236 16.7411C4.92076 16.6755 4.77621 16.6446 4.63044 16.5778C4.30307 16.4455 4.01031 16.2762 3.71633 16.071C3.12958 15.6964 2.64543 15.1748 2.2651 14.5421C1.886 13.9452 1.64654 13.236 1.58747 12.5564C1.5394 12.1993 1.56422 11.8756 1.58782 11.5161C1.61753 11.3357 1.64847 11.1912 1.67818 11.0108C1.70789 10.8304 1.77466 10.6847 1.80437 10.5043L1.85733 11.0047C1.86345 11.1838 1.90418 11.3259 1.94612 11.5039C1.99296 11.8251 2.07564 12.1452 2.15709 12.4294C2.32121 13.0336 2.55577 13.5995 2.89659 14.126C3.23742 14.6524 3.61286 15.1418 4.09456 15.5917C4.31688 15.7993 4.57504 16.0058 4.83319 16.2122C4.94435 16.316 5.09135 16.4186 5.23834 16.5212L5.60888 16.8673ZM5.54543 18.1608C5.44039 18.2362 5.29829 18.2769 5.15619 18.3176C5.01409 18.3583 4.90782 18.3979 4.7645 18.4027C4.51491 18.4471 4.22949 18.4928 3.94162 18.4667C3.40294 18.4492 2.82476 18.3255 2.3504 18.0906C1.8402 17.8569 1.39678 17.4774 1.09423 17.0214C0.943565 16.8113 0.791679 16.5654 0.675623 16.3183C0.636122 16.212 0.595397 16.0699 0.554673 15.9278C0.551002 15.8203 0.511501 15.7141 0.506607 15.5707C0.61777 15.6746 0.693101 15.7796 0.767209 15.8488C0.878371 15.9526 0.953703 16.0577 1.02781 16.1269C1.21308 16.2999 1.36252 16.4742 1.54657 16.6114C1.91588 16.9216 2.28398 17.196 2.72129 17.3963C3.12276 17.5979 3.59468 17.7611 4.02954 17.8898C4.24697 17.9541 4.49901 17.9813 4.75227 18.0444C4.86098 18.0766 5.0043 18.0717 5.11302 18.1039C5.2934 18.1336 5.40089 18.1299 5.54543 18.1608ZM13.0485 0.470683C13.2289 0.500396 13.3747 0.567163 13.5563 0.632707C13.7379 0.698251 13.8836 0.765018 14.0294 0.831785C14.358 0.999927 14.6508 1.16929 14.9448 1.37449C15.5327 1.78488 16.0181 2.34226 16.3626 2.9762C16.7071 3.61014 16.9107 4.32063 16.934 5.00141C16.9462 5.35972 16.9214 5.68342 16.862 6.04417C16.8322 6.22455 16.8013 6.36909 16.7358 6.55069C16.6702 6.73229 16.6393 6.87684 16.5725 7.02261L16.5196 6.5222C16.5134 6.34305 16.5085 6.19973 16.4666 6.0218L16.3261 5.05804C16.1978 4.4526 15.962 3.85082 15.6558 3.28732C15.3496 2.72381 14.9741 2.23442 14.5282 1.78331C14.3047 1.53983 14.0465 1.33341 13.823 1.08994C13.7118 0.986119 13.5648 0.883521 13.4179 0.780923L13.0485 0.470683ZM16.1609 0.220918C16.3054 0.251855 16.4142 0.284015 16.5241 0.352006C16.6328 0.384166 16.7786 0.450933 16.8885 0.518924C17.1084 0.654905 17.3283 0.790886 17.5494 0.962698C17.9557 1.30755 18.2929 1.7265 18.4892 2.22201C18.7213 2.7163 18.8113 3.25131 18.758 3.79122C18.7307 4.04325 18.6676 4.29651 18.6045 4.54978C18.5724 4.65849 18.5056 4.80426 18.4735 4.91297C18.4055 5.02291 18.3733 5.13163 18.2695 5.24279L18.2572 4.88448L18.245 4.52618C18.2364 4.27537 18.1933 4.06161 18.1859 3.84662C18.0984 3.38327 18.012 2.95575 17.8194 2.56773C17.6256 2.14388 17.3984 1.79292 17.1341 1.40735C16.9847 1.23309 16.834 1.023 16.6845 0.84874C16.6092 0.743695 16.5351 0.674481 16.4239 0.570659C16.3462 0.393953 16.235 0.290132 16.1609 0.220918Z" fill="#42ADE2"/>
<path id="Vector_2" d="M3.05005 6.01358C2.34445 6.36053 2.123 7.22902 2.46994 7.93462L7.30637 17.2039L9.77413 15.9359L4.93649 6.63074C4.58954 5.92514 3.75443 5.63081 3.05005 6.01358ZM15.1657 13.0972L17.7743 11.7526L12.2477 1.1796C11.8649 0.475228 10.994 0.182116 10.2537 0.566115C9.54937 0.94889 9.25626 1.81983 9.64025 2.56004L15.1657 13.0972Z" fill="#FFDD67"/>
<path id="Vector_3" d="M10.2884 0.529172C10.218 0.567449 10.1475 0.605727 10.0783 0.679835C10.753 0.477436 11.4806 0.775442 11.8251 1.40938L17.3518 11.9824L17.8102 11.7515L12.2836 1.17849C11.8996 0.438285 11.0286 0.145173 10.2884 0.529172Z" fill="#EBA352"/>
<path id="Vector_4" d="M9.77294 15.8999L12.4866 14.48L6.84515 3.69571C6.46115 2.9555 5.51732 2.62901 4.77711 3.013C4.0369 3.397 3.74624 4.33961 4.13024 5.07982L9.77294 15.8999Z" fill="#FFDD67"/>
<path id="Vector_5" d="M4.77834 3.04892C4.7079 3.0872 4.63746 3.12548 4.56825 3.19959C5.24291 2.99719 6.04219 3.29275 6.38791 3.96252L9.88218 10.6948L10.6864 11.1337L6.84637 3.73163C6.46115 2.95559 5.55437 2.6637 4.77834 3.04892Z" fill="#EBA352"/>
<path id="Vector_6" d="M12.0273 13.635L14.741 12.215L9.09951 1.43074C8.71551 0.690532 7.77169 0.364037 7.0327 0.783866C6.2925 1.16786 6.00183 2.11047 6.38583 2.85068L12.0273 13.635Z" fill="#FFDD67"/>
<path id="Vector_7" d="M7.03144 0.747822C6.961 0.786099 6.89179 0.860208 6.82135 0.898485C7.49601 0.696086 8.2953 0.991645 8.64102 1.66141L12.5958 9.2748L13.4 9.71368L9.09947 1.43053C8.71425 0.654488 7.77164 0.363823 7.03144 0.747822ZM3.05005 6.01352C2.97961 6.05179 2.90917 6.09007 2.83996 6.16418C3.47879 5.963 4.17058 6.26223 4.47925 6.8974L7.35863 12.431L8.16281 12.8699L4.93771 6.66651C4.58954 5.92508 3.75443 5.63074 3.05005 6.01352Z" fill="#EBA352"/>
<path id="Vector_8" d="M21.2153 4.31713C20.2222 3.59772 18.6738 4.47566 17.9736 7.08238C17.4973 8.89226 17.444 9.43216 16.3158 10.0088L15.6256 8.70506C15.6256 8.70506 5.61732 13.9613 6.03838 14.7361C6.03838 14.7361 7.3863 18.4926 9.52443 20.1773C12.6964 22.7236 19.8017 19.647 19.8905 12.7924C19.9338 8.80906 22.2826 5.10575 21.2153 4.31713Z" fill="#FFDD67"/>
<g id="Group">
<path id="Vector_9" d="M21.2153 4.31733C21.0313 4.18012 20.8138 4.1158 20.5976 4.08731C20.6347 4.12192 20.7064 4.11947 20.7434 4.15408C21.8465 4.94148 20.8006 6.87842 20.2502 8.61909C19.795 9.99778 19.4128 11.4099 19.5309 12.769C20.0207 18.7071 14.1336 21.742 10.5139 20.7894C14.0754 22.1386 20.5012 19.1211 20.0029 12.9322C19.8847 11.5731 20.2336 10.2339 20.7221 8.78234C21.2366 7.0429 22.2826 5.10595 21.2153 4.31733Z" fill="#EBA352"/>
<path id="Vector_10" d="M16.6334 9.85438C14.4204 10.181 11.2687 13.4813 13.6806 16.8786C11.8766 13.4247 14.5548 10.9657 16.2824 10.0816C16.4566 9.93216 16.6334 9.85438 16.6334 9.85438Z" fill="#EBA352"/>
</g>
</g>
</g>
</svg>
