<svg width="351" height="345" viewBox="0 0 351 345" fill="none" xmlns="http://www.w3.org/2000/svg">
<g clip-path="url(#clip0_132_443)">
<path d="M323.133 283.682C321.851 285.709 320.518 287.694 319.127 289.635C300.648 315.453 270.55 332.68 241.538 340.072C228.833 343.321 215.83 344.847 202.885 344.993C117.995 345.872 88.6645 274.777 61.8116 255.937C34.9587 237.104 -6.17176 205.056 0.782322 140.169C6.05583 90.8365 35.263 44.3025 86.926 24.1247C92.6197 21.8932 98.5813 19.9888 104.818 18.4406C116.423 15.555 128.955 13.8832 142.421 13.636C181.103 12.9164 212.23 23.0998 242.306 47.4717C249.297 53.1412 256.229 59.5013 265.472 60.4244C272.187 61.0931 278.627 58.8326 271.767 52.1091C263.697 44.208 273.629 29.3509 294.339 40.3993C328.928 58.8471 342.365 97.0512 348.16 135.691C355.274 183.12 349.703 241.727 323.126 283.696L323.133 283.682Z" fill="#ECEBF0"/>
<path opacity="0.7" d="M323.133 283.682C321.851 285.709 320.518 287.694 319.127 289.635C300.648 315.453 270.55 332.68 241.538 340.072C228.833 343.321 215.83 344.847 202.885 344.993C117.995 345.872 88.6645 274.777 61.8116 255.937C34.9587 237.104 -6.17176 205.056 0.782322 140.169C6.05583 90.8365 35.263 44.3025 86.926 24.1247C92.6197 21.8932 98.5813 19.9888 104.818 18.4406C116.423 15.555 128.955 13.8832 142.421 13.636C181.103 12.9164 212.23 23.0998 242.306 47.4717C249.297 53.1412 256.229 59.5013 265.472 60.4244C272.187 61.0931 278.627 58.8326 271.767 52.1091C263.697 44.208 273.629 29.3509 294.339 40.3993C328.928 58.8471 342.365 97.0512 348.16 135.691C355.274 183.12 349.703 241.727 323.126 283.696L323.133 283.682Z" fill="white"/>
<path d="M174.685 13.5997C148.281 29.6707 130.643 58.789 130.643 92.0358C130.643 118.574 141.878 142.473 159.835 159.213" stroke="#263238" stroke-miterlimit="10"/>
<path d="M271.166 14.7554C256.975 5.64775 240.104 0.363434 222.002 0.363434C206.63 0.363434 192.143 4.17221 179.43 10.903" stroke="#263238" stroke-miterlimit="10"/>
<path d="M235.294 24.539C230.991 23.6886 226.544 23.2452 221.995 23.2452C184.131 23.2452 153.439 54.0425 153.439 92.0359C153.439 112.679 162.501 131.199 176.851 143.811" stroke="#263238" stroke-miterlimit="10"/>
<path d="M251.071 29.7216C247.833 28.1952 244.45 26.9159 240.959 25.9128" stroke="#263238" stroke-miterlimit="10"/>
<path d="M181.929 118.276C183.74 121.06 185.833 123.64 188.173 125.981" stroke="#263238" stroke-miterlimit="10"/>
<path d="M226.761 44.2662C225.196 44.1135 223.61 44.0336 222.002 44.0336C195.576 44.0336 174.164 65.527 174.164 92.0358C174.164 100.191 176.192 107.874 179.763 114.598" stroke="#263238" stroke-miterlimit="10"/>
<path d="M216.185 63.688C203.045 66.3847 193.157 78.0582 193.157 92.0431C193.157 99.2827 195.808 105.904 200.191 110.978" stroke="#263238" stroke-miterlimit="10"/>
<path d="M202.646 314.799C198.698 320.708 194.077 326.131 188.898 330.95" stroke="#263238" stroke-miterlimit="10"/>
<path d="M177.814 187.75C202.118 204.228 218.097 232.125 218.097 263.765C218.097 280.999 213.353 297.129 205.109 310.903" stroke="#263238" stroke-miterlimit="10"/>
<path d="M183.928 225.83C191.107 236.704 195.287 249.744 195.287 263.765C195.287 284.408 186.225 302.929 171.875 315.54" stroke="#263238" stroke-miterlimit="10"/>
<path d="M168.028 208.851C172.961 212.594 177.38 216.992 181.147 221.92" stroke="#263238" stroke-miterlimit="10"/>
<path d="M169.1 286.087C166.847 290.39 163.957 294.308 160.56 297.717" stroke="#263238" stroke-miterlimit="10"/>
<path d="M157.227 226.782C167.825 235.585 174.576 248.886 174.576 263.773C174.576 270.416 173.229 276.747 170.795 282.504" stroke="#263238" stroke-miterlimit="10"/>
<path d="M141.689 239.023C150.013 244.096 155.576 253.284 155.576 263.773C155.576 271.012 152.925 277.634 148.542 282.708" stroke="#263238" stroke-miterlimit="10"/>
<path d="M115.974 113.798H98.0888V126.809H115.974V113.798Z" fill="#263238" stroke="#263238" stroke-miterlimit="10"/>
<path d="M115.974 130.603H98.0888V143.614H115.974V130.603Z" fill="#263238" stroke="#263238" stroke-miterlimit="10"/>
<path d="M115.974 147.409H98.0888V160.419H115.974V147.409Z" fill="#263238" stroke="#263238" stroke-miterlimit="10"/>
<path d="M115.974 96.9931H98.0888V110.004H115.974V96.9931Z" fill="#E5E5E5" stroke="#263238" stroke-linecap="round" stroke-linejoin="round"/>
<path d="M115.974 75.8485H98.0888V88.8595H115.974V75.8485Z" fill="#E5E5E5" stroke="#263238" stroke-linecap="round" stroke-linejoin="round"/>
<path d="M115.974 54.1661H98.0888V63.5354H115.974V54.1661Z" fill="#E5E5E5" stroke="#263238" stroke-linecap="round" stroke-linejoin="round"/>
<path d="M115.974 39.9195H98.0888V44.6005H115.974V39.9195Z" fill="#E5E5E5" stroke="#263238" stroke-linecap="round" stroke-linejoin="round"/>
<path d="M91.4969 130.603H73.6119V143.614H91.4969V130.603Z" fill="#E5E5E5" stroke="#263238" stroke-linecap="round" stroke-linejoin="round"/>
<path d="M91.4969 147.409H73.6119V160.419H91.4969V147.409Z" fill="#263238" stroke="#263238" stroke-miterlimit="10"/>
<path d="M91.4969 113.253H73.6119V126.264H91.4969V113.253Z" fill="#E5E5E5" stroke="#263238" stroke-linecap="round" stroke-linejoin="round"/>
<path d="M91.4969 99.9369H73.6119V109.306H91.4969V99.9369Z" fill="#E5E5E5" stroke="#263238" stroke-linecap="round" stroke-linejoin="round"/>
<path d="M91.4969 85.683H73.6119V90.3713H91.4969V85.683Z" fill="#E5E5E5" stroke="#263238" stroke-linecap="round" stroke-linejoin="round"/>
<path d="M67.02 113.798H49.1349V126.809H67.02V113.798Z" fill="#263238" stroke="#263238" stroke-miterlimit="10"/>
<path d="M67.02 130.603H49.1349V143.614H67.02V130.603Z" fill="#263238" stroke="#263238" stroke-miterlimit="10"/>
<path d="M67.02 147.409H49.1349V160.419H67.02V147.409Z" fill="#263238" stroke="#263238" stroke-miterlimit="10"/>
<path d="M67.02 96.9931H49.1349V110.004H67.02V96.9931Z" fill="#E5E5E5" stroke="#263238" stroke-linecap="round" stroke-linejoin="round"/>
<path d="M67.02 75.8485H49.1349V88.8595H67.02V75.8485Z" fill="#E5E5E5" stroke="#263238" stroke-linecap="round" stroke-linejoin="round"/>
<path d="M67.02 54.1661H49.1349V63.5354H67.02V54.1661Z" fill="#E5E5E5" stroke="#263238" stroke-linecap="round" stroke-linejoin="round"/>
<path d="M67.02 39.9195H49.1349V44.6005H67.02V39.9195Z" fill="#E5E5E5" stroke="#263238" stroke-linecap="round" stroke-linejoin="round"/>
<path d="M42.5503 147.409H24.6653V160.419H42.5503V147.409Z" fill="#263238" stroke="#263238" stroke-miterlimit="10"/>
<path d="M42.5503 130.487H24.6653V143.498H42.5503V130.487Z" fill="#263238" stroke="#263238" stroke-miterlimit="10"/>
<path d="M42.5503 109.343H24.6653V122.353H42.5503V109.343Z" fill="#E5E5E5" stroke="#263238" stroke-linecap="round" stroke-linejoin="round"/>
<path d="M42.5503 87.6601H24.6653V97.0294H42.5503V87.6601Z" fill="#E5E5E5" stroke="#263238" stroke-linecap="round" stroke-linejoin="round"/>
<path d="M42.5503 73.4135H24.6653V78.1018H42.5503V73.4135Z" fill="#E5E5E5" stroke="#263238" stroke-linecap="round" stroke-linejoin="round"/>
<path d="M324.039 295.777H306.154V308.788H324.039V295.777Z" fill="#263238" stroke="#263238" stroke-miterlimit="10"/>
<path d="M324.039 312.582H306.154V325.593H324.039V312.582Z" fill="#263238" stroke="#263238" stroke-miterlimit="10"/>
<path d="M324.039 329.387H306.154V342.398H324.039V329.387Z" fill="#263238" stroke="#263238" stroke-miterlimit="10"/>
<path d="M324.039 278.971H306.154V291.982H324.039V278.971Z" fill="#ECEBED" stroke="#263238" stroke-linecap="round" stroke-linejoin="round"/>
<path d="M324.039 257.827H306.154V270.838H324.039V257.827Z" fill="#ECEBED" stroke="#263238" stroke-linecap="round" stroke-linejoin="round"/>
<path d="M324.039 236.144H306.154V245.514H324.039V236.144Z" fill="#ECEBED" stroke="#263238" stroke-linecap="round" stroke-linejoin="round"/>
<path d="M324.039 221.898H306.154V226.579H324.039V221.898Z" fill="#ECEBED" stroke="#263238" stroke-linecap="round" stroke-linejoin="round"/>
<path d="M299.562 312.582H281.677V325.593H299.562V312.582Z" fill="#ECEBED" stroke="#263238" stroke-linecap="round" stroke-linejoin="round"/>
<path d="M299.562 329.387H281.677V342.398H299.562V329.387Z" fill="#263238" stroke="#263238" stroke-miterlimit="10"/>
<path d="M299.562 295.231H281.677V308.242H299.562V295.231Z" fill="#ECEBED" stroke="#263238" stroke-linecap="round" stroke-linejoin="round"/>
<path d="M299.562 281.908H281.677V291.277H299.562V281.908Z" fill="#ECEBED" stroke="#263238" stroke-linecap="round" stroke-linejoin="round"/>
<path d="M299.562 267.661H281.677V272.342H299.562V267.661Z" fill="#ECEBED" stroke="#263238" stroke-linecap="round" stroke-linejoin="round"/>
<path d="M275.092 295.777H257.207V308.788H275.092V295.777Z" fill="#263238" stroke="#263238" stroke-miterlimit="10"/>
<path d="M275.092 312.582H257.207V325.593H275.092V312.582Z" fill="#263238" stroke="#263238" stroke-miterlimit="10"/>
<path d="M275.092 329.387H257.207V342.398H275.092V329.387Z" fill="#263238" stroke="#263238" stroke-miterlimit="10"/>
<path d="M275.092 278.971H257.207V291.982H275.092V278.971Z" fill="#ECEBED" stroke="#263238" stroke-linecap="round" stroke-linejoin="round"/>
<path d="M275.092 257.827H257.207V270.838H275.092V257.827Z" fill="#ECEBED" stroke="#263238" stroke-linecap="round" stroke-linejoin="round"/>
<path d="M275.092 236.144H257.207V245.514H275.092V236.144Z" fill="#ECEBED" stroke="#263238" stroke-linecap="round" stroke-linejoin="round"/>
<path d="M275.092 221.898H257.207V226.579H275.092V221.898Z" fill="#ECEBED" stroke="#263238" stroke-linecap="round" stroke-linejoin="round"/>
<path d="M250.615 329.387H232.73V342.398H250.615V329.387Z" fill="#263238" stroke="#263238" stroke-miterlimit="10"/>
<path d="M250.615 312.465H232.73V325.476H250.615V312.465Z" fill="#263238" stroke="#263238" stroke-miterlimit="10"/>
<path d="M250.615 291.321H232.73V304.332H250.615V291.321Z" fill="#ECEBED" stroke="#263238" stroke-linecap="round" stroke-linejoin="round"/>
<path d="M250.615 269.638H232.73V279.008H250.615V269.638Z" fill="#ECEBED" stroke="#263238" stroke-linecap="round" stroke-linejoin="round"/>
<path d="M250.615 255.392H232.73V260.073H250.615V255.392Z" fill="#ECEBED" stroke="#263238" stroke-linecap="round" stroke-linejoin="round"/>
<path d="M164.92 268.388L90.3596 312.509L50.3809 175.822L127.296 139.798L164.92 268.388Z" fill="#E5E5E5" stroke="#263238" stroke-linecap="round" stroke-linejoin="round"/>
<path d="M143.529 230.104C150.737 246.088 145.065 268.061 130.563 279.495C115.684 291.219 97.1615 287.498 89.512 270.838C81.8336 254.12 88.3096 231.354 103.63 220.313C118.567 209.548 136.293 214.062 143.529 230.104Z" fill="#263238" stroke="#263238" stroke-miterlimit="10"/>
<path d="M93.0688 239.205C93.4165 239.96 93.1267 240.985 92.4241 241.494C91.7214 242.01 90.8739 241.814 90.5262 241.058C90.1785 240.302 90.4682 239.277 91.1709 238.761C91.8735 238.252 92.7211 238.449 93.0688 239.197V239.205Z" fill="#575757"/>
<path d="M124.558 216.214C124.891 216.948 124.623 217.936 123.956 218.423C123.29 218.91 122.479 218.707 122.146 217.973C121.812 217.239 122.08 216.243 122.747 215.756C123.413 215.269 124.225 215.472 124.55 216.214H124.558Z" fill="#575757"/>
<path d="M112.627 281.995C112.968 282.744 112.692 283.776 112.004 284.314C111.316 284.852 110.483 284.677 110.143 283.929C109.802 283.18 110.085 282.141 110.773 281.61C111.461 281.079 112.294 281.246 112.634 281.995H112.627Z" fill="#575757"/>
<path d="M143.464 257.994C143.79 258.721 143.537 259.724 142.885 260.233C142.233 260.742 141.436 260.56 141.103 259.833C140.769 259.106 141.03 258.103 141.689 257.594C142.341 257.085 143.138 257.267 143.464 257.994Z" fill="#575757"/>
<path d="M94.2495 267.262C87.8967 253.408 93.2209 234.531 105.912 225.321C118.335 216.301 133.127 220.008 139.169 233.39C145.195 246.735 140.429 265.059 128.303 274.545C115.923 284.227 100.581 281.072 94.2495 267.262Z" fill="#575757" stroke="#263238" stroke-miterlimit="10"/>
<path d="M134.88 236.624C139.741 247.367 135.873 262.123 126.101 269.711C116.162 277.43 103.898 274.85 98.8421 263.802C93.7714 252.732 98.0018 237.627 108.129 230.213C118.089 222.923 130.005 225.852 134.873 236.624H134.88Z" fill="#263238" stroke="#263238" stroke-miterlimit="10"/>
<path d="M122.203 246.182C123.594 249.25 122.471 253.451 119.675 255.574C116.865 257.711 113.438 256.947 112.033 253.851C110.621 250.762 111.78 246.531 114.605 244.416C117.415 242.316 120.813 243.108 122.211 246.175L122.203 246.182Z" fill="#575757" stroke="#263238" stroke-miterlimit="10"/>
<path d="M105.057 191.071C110.041 202.062 105.927 216.802 95.7273 224.137C85.3541 231.594 72.6122 228.6 67.4256 217.297C62.2245 205.965 66.7157 190.875 77.2989 183.73C87.7011 176.709 100.066 180.059 105.057 191.071Z" fill="#263238" stroke="#263238" stroke-miterlimit="10"/>
<path d="M69.9537 196.225C70.1855 196.734 69.9827 197.417 69.5046 197.744C69.0192 198.071 68.4397 197.926 68.2079 197.417C67.9761 196.901 68.1789 196.225 68.657 195.891C69.1424 195.563 69.7219 195.709 69.9537 196.225Z" fill="#575757"/>
<path d="M91.8446 181.324C92.0764 181.826 91.8808 182.494 91.4172 182.814C90.9536 183.134 90.3886 182.981 90.1568 182.48C89.925 181.978 90.1205 181.31 90.5841 180.99C91.0478 180.67 91.6128 180.823 91.8446 181.324Z" fill="#575757"/>
<path d="M83.2751 225.336C83.5069 225.845 83.3113 226.535 82.8332 226.87C82.3551 227.211 81.7829 227.073 81.5511 226.564C81.3193 226.056 81.5149 225.365 81.993 225.031C82.471 224.689 83.0433 224.827 83.2751 225.336Z" fill="#575757"/>
<path d="M104.855 209.963C105.079 210.464 104.891 211.133 104.434 211.46C103.978 211.787 103.42 211.649 103.188 211.147C102.964 210.646 103.152 209.977 103.609 209.65C104.065 209.323 104.623 209.461 104.855 209.963Z" fill="#575757"/>
<path d="M70.678 215.022C66.368 205.623 70.0768 193.099 78.8491 187.146C87.4982 181.281 97.8062 184.035 101.971 193.216C106.129 202.381 102.681 214.658 94.177 220.749C85.5424 226.921 74.9736 224.406 70.678 215.022Z" fill="#575757" stroke="#263238" stroke-miterlimit="10"/>
<path d="M98.958 195.324C102.305 202.694 99.523 212.572 92.6704 217.442C85.7452 222.37 77.2844 220.328 73.8436 212.819C70.3956 205.296 73.351 195.265 80.3703 190.475C87.3099 185.743 95.5969 187.939 98.9508 195.324H98.958Z" fill="#263238" stroke="#263238" stroke-miterlimit="10"/>
<path d="M90.0626 201.516C91.0188 203.61 90.2147 206.416 88.2661 207.782C86.3103 209.156 83.9415 208.56 82.9781 206.452C82.0147 204.344 82.8332 201.531 84.7963 200.165C86.7522 198.805 89.1136 199.416 90.0698 201.509L90.0626 201.516Z" fill="#575757" stroke="#263238" stroke-miterlimit="10"/>
<path d="M126.912 161.125C130.541 169.2 127.622 179.834 120.32 184.951C112.924 190.134 103.833 187.713 100.095 179.471C96.3502 171.213 99.4651 160.398 106.97 155.382C114.38 150.432 123.276 153.034 126.912 161.125Z" fill="#263238" stroke="#263238" stroke-miterlimit="10"/>
<path d="M101.798 164.315C101.964 164.686 101.827 165.18 101.486 165.406C101.146 165.638 100.733 165.522 100.559 165.144C100.392 164.773 100.53 164.279 100.87 164.054C101.211 163.821 101.624 163.937 101.798 164.315Z" fill="#575757"/>
<path d="M117.379 153.841C117.546 154.212 117.408 154.692 117.075 154.917C116.742 155.142 116.336 155.026 116.169 154.655C116.003 154.285 116.14 153.805 116.474 153.58C116.807 153.354 117.212 153.471 117.379 153.841Z" fill="#575757"/>
<path d="M111.417 185.576C111.584 185.947 111.446 186.441 111.106 186.674C110.765 186.906 110.36 186.797 110.186 186.427C110.019 186.056 110.157 185.562 110.497 185.329C110.838 185.097 111.244 185.206 111.417 185.576Z" fill="#575757"/>
<path d="M126.832 174.855C126.999 175.226 126.861 175.705 126.535 175.938C126.202 176.171 125.804 176.054 125.637 175.691C125.47 175.32 125.608 174.84 125.934 174.608C126.267 174.375 126.666 174.492 126.832 174.855Z" fill="#575757"/>
<path d="M102.399 177.893C99.2912 171.039 101.87 162.055 108.1 157.883C114.264 153.747 121.675 155.898 124.703 162.636C127.731 169.367 125.289 178.22 119.197 182.473C113.047 186.768 105.499 184.74 102.399 177.893Z" fill="#575757" stroke="#263238" stroke-miterlimit="10"/>
<path d="M122.537 164.119C124.971 169.527 123 176.643 118.103 180.052C113.163 183.483 107.122 181.847 104.637 176.367C102.153 170.879 104.21 163.676 109.194 160.325C114.141 156.996 120.096 158.711 122.529 164.126L122.537 164.119Z" fill="#263238" stroke="#263238" stroke-miterlimit="10"/>
<path d="M116.177 168.473C116.872 170.007 116.307 172.028 114.916 172.98C113.518 173.939 111.823 173.467 111.128 171.926C110.432 170.385 111.004 168.357 112.403 167.405C113.801 166.452 115.488 166.932 116.184 168.466L116.177 168.473Z" fill="#575757" stroke="#263238" stroke-miterlimit="10"/>
<path d="M127.296 139.798L93.8222 132.442L14.6253 168.909L50.0404 175.691L127.296 139.798Z" fill="#E5E5E5" stroke="#263238" stroke-linecap="round" stroke-linejoin="round"/>
<path d="M127.296 139.798L93.8222 132.442L14.6253 168.909L50.0404 175.691L127.296 139.798Z" stroke="#263238" stroke-linecap="round" stroke-linejoin="round"/>
<path d="M14.6253 168.909L56.9583 306.825L90.3596 312.509L50.0404 175.691L14.6253 168.909Z" fill="#263238" stroke="#263238" stroke-miterlimit="10"/>
<path d="M176.699 174.266L257.67 224.376L304.574 75.0563L220.836 33.7848L176.699 174.266Z" fill="white" stroke="#263238" stroke-linecap="round" stroke-linejoin="round"/>
<path d="M201.038 132.66C192.766 150.069 198.525 174.339 214.215 187.219C230.31 200.433 250.745 196.741 259.51 178.606C268.312 160.398 261.691 135.241 245.095 122.775C228.912 110.622 209.34 115.194 201.038 132.66Z" fill="#263238" stroke="#263238" stroke-miterlimit="10"/>
<path d="M256.287 143.767C255.896 144.588 256.185 145.722 256.946 146.296C257.707 146.878 258.641 146.682 259.04 145.86C259.438 145.039 259.141 143.905 258.38 143.324C257.62 142.749 256.685 142.946 256.287 143.767Z" fill="#575757"/>
<path d="M222.183 117.818C221.799 118.617 222.074 119.715 222.791 120.26C223.509 120.813 224.407 120.602 224.791 119.802C225.175 119.003 224.899 117.905 224.175 117.36C223.451 116.815 222.56 117.018 222.176 117.818H222.183Z" fill="#575757"/>
<path d="M233.86 190.359C233.469 191.173 233.751 192.322 234.497 192.925C235.243 193.528 236.163 193.361 236.555 192.547C236.946 191.733 236.663 190.584 235.917 189.981C235.171 189.378 234.251 189.552 233.86 190.366V190.359Z" fill="#575757"/>
<path d="M200.502 163.312C200.125 164.105 200.386 165.21 201.089 165.784C201.791 166.358 202.675 166.176 203.052 165.384C203.429 164.592 203.168 163.48 202.458 162.913C201.755 162.346 200.879 162.52 200.495 163.32L200.502 163.312Z" fill="#575757"/>
<path d="M254.374 174.579C261.655 159.496 256.214 138.635 242.473 128.234C229.021 118.05 212.686 121.794 205.747 136.367C198.836 150.898 203.675 171.148 216.786 181.833C230.18 192.751 247.109 189.61 254.367 174.579H254.374Z" fill="#575757" stroke="#263238" stroke-miterlimit="10"/>
<path d="M210.397 140.016C204.819 151.719 208.753 168.008 219.322 176.563C230.071 185.264 243.61 182.698 249.405 170.668C255.215 158.61 250.905 141.928 239.93 133.554C229.144 125.326 215.989 128.285 210.397 140.016Z" fill="#263238" stroke="#263238" stroke-miterlimit="10"/>
<path d="M224.117 150.796C222.523 154.132 223.668 158.777 226.689 161.168C229.731 163.574 233.512 162.811 235.128 159.445C236.743 156.08 235.562 151.406 232.505 149.022C229.463 146.653 225.711 147.452 224.11 150.788L224.117 150.796Z" fill="#575757" stroke="#263238" stroke-miterlimit="10"/>
<path d="M244.161 90.6185C238.445 102.583 242.647 118.872 253.694 127.158C264.936 135.582 278.996 132.566 284.943 120.26C290.905 107.918 286.298 91.2436 274.824 83.1608C263.545 75.2162 249.891 78.6252 244.161 90.6185Z" fill="#263238" stroke="#263238" stroke-miterlimit="10"/>
<path d="M282.618 97.0512C282.35 97.6109 282.553 98.3596 283.082 98.7376C283.603 99.1083 284.248 98.9629 284.516 98.4032C284.784 97.8435 284.574 97.0876 284.053 96.7169C283.531 96.3462 282.886 96.4988 282.618 97.0512Z" fill="#575757"/>
<path d="M258.895 80.1952C258.634 80.7403 258.83 81.4817 259.337 81.8379C259.844 82.1941 260.467 82.0414 260.727 81.4963C260.988 80.9439 260.793 80.2097 260.286 79.8536C259.778 79.4974 259.155 79.65 258.895 80.1952Z" fill="#575757"/>
<path d="M267.348 128.75C267.08 129.302 267.283 130.066 267.797 130.443C268.312 130.829 268.949 130.691 269.217 130.138C269.485 129.586 269.282 128.823 268.768 128.437C268.254 128.052 267.616 128.19 267.348 128.75Z" fill="#575757"/>
<path d="M243.972 111.378C243.712 111.923 243.907 112.664 244.4 113.035C244.9 113.406 245.515 113.268 245.776 112.715C246.037 112.17 245.841 111.429 245.349 111.058C244.849 110.687 244.233 110.833 243.972 111.378Z" fill="#575757"/>
<path d="M281.416 117.687C286.356 107.453 282.553 93.6059 273.042 86.8751C263.661 80.2388 252.281 83.0445 247.5 93.0389C242.734 103.019 246.254 116.589 255.468 123.466C264.82 130.436 276.49 127.899 281.416 117.687Z" fill="#575757" stroke="#263238" stroke-miterlimit="10"/>
<path d="M250.774 95.423C246.935 103.448 249.782 114.358 257.2 119.868C264.704 125.435 274.042 123.378 277.989 115.201C281.937 107.009 278.909 95.9246 271.303 90.5094C263.784 85.1597 254.621 87.3912 250.782 95.4303L250.774 95.423Z" fill="#263238" stroke="#263238" stroke-miterlimit="10"/>
<path d="M260.409 102.423C259.315 104.705 260.133 107.802 262.249 109.35C264.371 110.898 266.986 110.302 268.094 108.005C269.195 105.708 268.362 102.597 266.233 101.056C264.11 99.5226 261.51 100.133 260.409 102.423Z" fill="#575757" stroke="#263238" stroke-miterlimit="10"/>
<path d="M220.792 57.2335C216.627 66.0286 219.604 77.782 227.522 83.5606C235.541 89.4191 245.58 86.9551 249.862 77.9782C254.157 68.9869 250.97 57.03 242.828 51.3604C234.787 45.7563 224.965 48.4239 220.792 57.2335Z" fill="#263238" stroke="#263238" stroke-miterlimit="10"/>
<path d="M248.319 61.2821C248.123 61.6891 248.268 62.227 248.637 62.4887C249.007 62.7504 249.463 62.6341 249.659 62.227C249.854 61.82 249.709 61.2821 249.34 61.0204C248.971 60.7588 248.514 60.8823 248.319 61.2894V61.2821Z" fill="#575757"/>
<path d="M231.433 49.4342C231.245 49.834 231.383 50.3646 231.745 50.619C232.107 50.8734 232.556 50.7498 232.744 50.35C232.933 49.9503 232.795 49.4197 232.433 49.1652C232.071 48.9108 231.622 49.0344 231.433 49.4342Z" fill="#575757"/>
<path d="M237.293 84.4401C237.098 84.8471 237.243 85.3923 237.605 85.6539C237.974 85.9229 238.424 85.8066 238.619 85.4068C238.815 84.9998 238.67 84.4546 238.3 84.193C237.931 83.924 237.482 84.0403 237.286 84.4474L237.293 84.4401Z" fill="#575757"/>
<path d="M220.582 72.3159C220.394 72.7157 220.531 73.2536 220.886 73.508C221.241 73.7697 221.69 73.6534 221.879 73.2536C222.067 72.8538 221.929 72.3159 221.574 72.0615C221.219 71.7999 220.77 71.9162 220.582 72.3159Z" fill="#575757"/>
<path d="M247.362 76.1974C250.926 68.7325 248.29 58.8035 241.538 54.0789C234.852 49.4051 226.667 51.6075 223.19 58.9416C219.72 66.2684 222.205 76.0593 228.804 80.8566C235.468 85.7121 243.806 83.6478 247.362 76.1901V76.1974Z" fill="#575757" stroke="#263238" stroke-miterlimit="10"/>
<path d="M225.537 60.6134C222.748 66.501 224.754 74.3657 230.057 78.2181C235.41 82.0996 242.082 80.4351 244.929 74.4602C247.775 68.4781 245.675 60.5262 240.271 56.7319C234.91 52.9668 228.326 54.7185 225.53 60.6207L225.537 60.6134Z" fill="#263238" stroke="#263238" stroke-miterlimit="10"/>
<path d="M232.433 65.5343C231.636 67.2061 232.216 69.4376 233.722 70.5206C235.236 71.6036 237.112 71.1239 237.909 69.4448C238.706 67.7658 238.127 65.527 236.605 64.4512C235.091 63.3755 233.223 63.8625 232.433 65.5343Z" fill="#575757" stroke="#263238" stroke-miterlimit="10"/>
<path d="M220.836 33.7847L257.786 26.4361L344.017 68.2455L304.951 74.9109L220.836 33.7847Z" fill="white" stroke="#263238" stroke-linecap="round" stroke-linejoin="round"/>
<path d="M220.836 33.7847L257.786 26.4361L344.017 68.2455L304.951 74.9109L220.836 33.7847Z" stroke="#263238" stroke-linecap="round" stroke-linejoin="round"/>
<path d="M344.017 68.2455L294.498 218.867L257.67 224.376L304.951 74.9108L344.017 68.2455Z" fill="#263238" stroke="#263238" stroke-miterlimit="10"/>
</g>
<defs>
<clipPath id="clip0_132_443">
<rect width="351" height="345" fill="white"/>
</clipPath>
</defs>
</svg>
