<svg width="15" height="15" viewBox="0 0 26 26" fill="none" xmlns="http://www.w3.org/2000/svg">
<g id="mdi:eye-off">
<path id="Vector" d="M12.8158 9.75L16.25 13.1733V13C16.25 12.138 15.9076 11.3114 15.2981 10.7019C14.6886 10.0924 13.862 9.75 13 9.75H12.8158ZM8.15751 10.6167L9.83667 12.2958C9.78251 12.5233 9.75001 12.7508 9.75001 13C9.75001 13.862 10.0924 14.6886 10.7019 15.2981C11.3114 15.9076 12.1381 16.25 13 16.25C13.2383 16.25 13.4767 16.2175 13.7042 16.1633L15.3833 17.8425C14.6575 18.2 13.8558 18.4167 13 18.4167C11.5634 18.4167 10.1857 17.846 9.16985 16.8302C8.15403 15.8143 7.58334 14.4366 7.58334 13C7.58334 12.1442 7.80001 11.3425 8.15751 10.6167ZM2.16668 4.62583L4.63668 7.09583L5.12418 7.58333C3.33668 8.99167 1.92834 10.8333 1.08334 13C2.95751 17.7558 7.58334 21.125 13 21.125C14.6792 21.125 16.2825 20.8 17.745 20.215L18.2108 20.67L21.3742 23.8333L22.75 22.4575L3.54251 3.25M13 7.58333C14.4366 7.58333 15.8143 8.15402 16.8302 9.16984C17.846 10.1857 18.4167 11.5634 18.4167 13C18.4167 13.6933 18.2758 14.365 18.0267 14.9717L21.2008 18.1458C22.8258 16.7917 24.1258 15.015 24.9167 13C23.0425 8.24417 18.4167 4.875 13 4.875C11.4833 4.875 10.0317 5.14583 8.66668 5.63333L11.0175 7.9625C11.635 7.72417 12.2958 7.58333 13 7.58333Z" fill="#2111AD"/>
</g>
</svg>
