<svg width="510" height="1012" viewBox="0 0 510 1012" fill="none" xmlns="http://www.w3.org/2000/svg">
<path d="M40 90C40 62.3858 62.3858 40 90 40H420C447.614 40 470 62.3858 470 90V922C470 949.614 447.614 972 420 972H90C62.3858 972 40 949.614 40 922V90Z" fill="#D9D9D9"/>
<rect x="99" y="147" width="175" height="175" fill="#121F33"/>
<rect x="237" y="277" width="175" height="175" fill="white"/>
<rect x="99" y="418" width="175" height="175" fill="#0F26F6"/>
<rect x="237" y="554" width="175" height="175" fill="#D20781"/>
<rect x="99" y="689" width="175" height="175" fill="#ECEBF0"/>
<rect x="40" y="4" width="88.0625" height="30" rx="3" fill="#D9D9D9"/>
<rect x="40.5" y="4.5" width="87.0625" height="29" rx="2.5" stroke="black" stroke-opacity="0.14902"/>
<path d="M51.3438 16C51.2969 15.6042 51.1068 15.2969 50.7734 15.0781C50.4401 14.8594 50.0313 14.75 49.5469 14.75C49.1927 14.75 48.8828 14.8073 48.6172 14.9219C48.3542 15.0365 48.1484 15.194 48 15.3945C47.8542 15.5951 47.7813 15.8229 47.7813 16.0781C47.7813 16.2917 47.832 16.4753 47.9336 16.6289C48.0378 16.7799 48.1706 16.9062 48.332 17.0078C48.4935 17.1068 48.6628 17.1888 48.8398 17.2539C49.0169 17.3164 49.1797 17.3672 49.3281 17.4062L50.1406 17.625C50.349 17.6797 50.5807 17.7552 50.8359 17.8516C51.0938 17.9479 51.3398 18.0794 51.5742 18.2461C51.8112 18.4102 52.0065 18.6211 52.1602 18.8789C52.3138 19.1367 52.3906 19.4531 52.3906 19.8281C52.3906 20.2604 52.2773 20.651 52.0508 21C51.8268 21.349 51.4987 21.6263 51.0664 21.832C50.6367 22.0378 50.1146 22.1406 49.5 22.1406C48.9271 22.1406 48.431 22.0482 48.0117 21.8633C47.5951 21.6784 47.2669 21.4206 47.0273 21.0898C46.7904 20.7591 46.6563 20.375 46.625 19.9375H47.625C47.651 20.2396 47.7526 20.4896 47.9297 20.6875C48.1094 20.8828 48.3359 21.0286 48.6094 21.125C48.8854 21.2187 49.1823 21.2656 49.5 21.2656C49.8698 21.2656 50.2018 21.2057 50.4961 21.0859C50.7904 20.9635 51.0234 20.7943 51.1953 20.5781C51.3672 20.3594 51.4531 20.1042 51.4531 19.8125C51.4531 19.5469 51.3789 19.3307 51.2305 19.1641C51.082 18.9974 50.8867 18.862 50.6445 18.7578C50.4023 18.6536 50.1406 18.5625 49.8594 18.4844L48.875 18.2031C48.25 18.0234 47.7552 17.7669 47.3906 17.4336C47.026 17.1003 46.8438 16.6641 46.8438 16.125C46.8438 15.6771 46.9648 15.2865 47.207 14.9531C47.4518 14.6172 47.7799 14.3568 48.1914 14.1719C48.6055 13.9844 49.0677 13.8906 49.5781 13.8906C50.0938 13.8906 50.5521 13.9831 50.9531 14.168C51.3542 14.3503 51.6719 14.6003 51.9062 14.918C52.1432 15.2357 52.2682 15.5964 52.2813 16H51.3438ZM53.8584 24.25V16H54.749V16.9531H54.8584C54.9261 16.849 55.0199 16.7161 55.1396 16.5547C55.262 16.3906 55.4365 16.2448 55.6631 16.1172C55.8923 15.987 56.2021 15.9219 56.5928 15.9219C57.098 15.9219 57.5433 16.0482 57.9287 16.3008C58.3141 16.5534 58.6149 16.9115 58.8311 17.375C59.0472 17.8385 59.1553 18.3854 59.1553 19.0156C59.1553 19.651 59.0472 20.2018 58.8311 20.668C58.6149 21.1315 58.3154 21.4909 57.9326 21.7461C57.5498 21.9987 57.1084 22.125 56.6084 22.125C56.223 22.125 55.9144 22.0612 55.6826 21.9336C55.4508 21.8034 55.2725 21.6562 55.1475 21.4922C55.0225 21.3255 54.9261 21.1875 54.8584 21.0781H54.7803V24.25H53.8584ZM54.7646 19C54.7646 19.4531 54.8311 19.8529 54.9639 20.1992C55.0967 20.543 55.2907 20.8125 55.5459 21.0078C55.8011 21.2005 56.1136 21.2969 56.4834 21.2969C56.8688 21.2969 57.1904 21.1953 57.4482 20.9922C57.7087 20.7865 57.904 20.5104 58.0342 20.1641C58.167 19.8151 58.2334 19.4271 58.2334 19C58.2334 18.5781 58.1683 18.1979 58.0381 17.8594C57.9105 17.5182 57.7165 17.2487 57.4561 17.0508C57.1982 16.8503 56.874 16.75 56.4834 16.75C56.1084 16.75 55.7933 16.8451 55.5381 17.0352C55.2829 17.2227 55.0902 17.4857 54.96 17.8242C54.8298 18.1602 54.7646 18.5521 54.7646 19ZM61.4834 14V22H60.5615V14H61.4834ZM64.9375 22.1406C64.5573 22.1406 64.2122 22.069 63.9023 21.9258C63.5924 21.7799 63.3464 21.5703 63.1641 21.2969C62.9818 21.0208 62.8906 20.6875 62.8906 20.2969C62.8906 19.9531 62.9583 19.6745 63.0938 19.4609C63.2292 19.2448 63.4102 19.0755 63.6367 18.9531C63.8633 18.8307 64.1133 18.7396 64.3867 18.6797C64.6628 18.6172 64.9401 18.5677 65.2188 18.5313C65.5833 18.4844 65.8789 18.4492 66.1055 18.4258C66.3346 18.3997 66.5013 18.3568 66.6055 18.2969C66.7122 18.237 66.7656 18.1328 66.7656 17.9844V17.9531C66.7656 17.5677 66.6602 17.2682 66.4492 17.0547C66.2409 16.8411 65.9245 16.7344 65.5 16.7344C65.0599 16.7344 64.7148 16.8307 64.4648 17.0234C64.2148 17.2161 64.0391 17.4219 63.9375 17.6406L63.0625 17.3281C63.2188 16.9635 63.4271 16.6797 63.6875 16.4766C63.9505 16.2708 64.237 16.1276 64.5469 16.0469C64.8594 15.9635 65.1667 15.9219 65.4688 15.9219C65.6615 15.9219 65.8828 15.9453 66.1328 15.9922C66.3854 16.0365 66.6289 16.1289 66.8633 16.2695C67.1003 16.4102 67.2969 16.6224 67.4531 16.9062C67.6094 17.1901 67.6875 17.5703 67.6875 18.0469V22H66.7656V21.1875H66.7188C66.6563 21.3177 66.5521 21.457 66.4063 21.6055C66.2604 21.7539 66.0664 21.8802 65.8242 21.9844C65.582 22.0885 65.2865 22.1406 64.9375 22.1406ZM65.0781 21.3125C65.4427 21.3125 65.75 21.2409 66 21.0977C66.2526 20.9544 66.4427 20.7695 66.5703 20.543C66.7005 20.3164 66.7656 20.0781 66.7656 19.8281V18.9844C66.7266 19.0312 66.6406 19.0742 66.5078 19.1133C66.3776 19.1497 66.2266 19.1823 66.0547 19.2109C65.8854 19.237 65.7201 19.2604 65.5586 19.2812C65.3997 19.2995 65.2708 19.3151 65.1719 19.3281C64.9323 19.3594 64.7083 19.4102 64.5 19.4805C64.2943 19.5482 64.1276 19.651 64 19.7891C63.875 19.9245 63.8125 20.1094 63.8125 20.3437C63.8125 20.6641 63.931 20.9062 64.168 21.0703C64.4076 21.2318 64.7109 21.3125 65.0781 21.3125ZM73.6201 17.3437L72.792 17.5781C72.7399 17.4401 72.6631 17.306 72.5615 17.1758C72.4626 17.043 72.3271 16.9336 72.1553 16.8477C71.9834 16.7617 71.7633 16.7187 71.4951 16.7187C71.1279 16.7187 70.8219 16.8034 70.5771 16.9727C70.335 17.1393 70.2139 17.3516 70.2139 17.6094C70.2139 17.8385 70.2972 18.0195 70.4639 18.1523C70.6305 18.2852 70.891 18.3958 71.2451 18.4844L72.1357 18.7031C72.6722 18.8333 73.0719 19.0326 73.335 19.3008C73.598 19.5664 73.7295 19.9089 73.7295 20.3281C73.7295 20.6719 73.6305 20.9792 73.4326 21.25C73.2373 21.5208 72.9639 21.7344 72.6123 21.8906C72.2607 22.0469 71.8519 22.125 71.3857 22.125C70.7738 22.125 70.2673 21.9922 69.8662 21.7266C69.4652 21.4609 69.2113 21.0729 69.1045 20.5625L69.9795 20.3437C70.0628 20.6667 70.2204 20.9089 70.4521 21.0703C70.6865 21.2318 70.9925 21.3125 71.3701 21.3125C71.7998 21.3125 72.141 21.2214 72.3936 21.0391C72.6488 20.8542 72.7764 20.6328 72.7764 20.375C72.7764 20.1667 72.7035 19.9922 72.5576 19.8516C72.4118 19.7083 72.1878 19.6016 71.8857 19.5312L70.8857 19.2969C70.3363 19.1667 69.9326 18.9648 69.6748 18.6914C69.4196 18.4154 69.292 18.0703 69.292 17.6562C69.292 17.3177 69.387 17.0182 69.5771 16.7578C69.7699 16.4974 70.0316 16.293 70.3623 16.1445C70.6956 15.9961 71.0732 15.9219 71.4951 15.9219C72.0889 15.9219 72.555 16.0521 72.8936 16.3125C73.2347 16.5729 73.4769 16.9167 73.6201 17.3437ZM76.0391 18.3906V22H75.1172V14H76.0391V16.9375H76.1172C76.2578 16.6276 76.4688 16.3815 76.75 16.1992C77.0339 16.0143 77.4115 15.9219 77.8828 15.9219C78.2917 15.9219 78.6497 16.0039 78.957 16.168C79.2643 16.3294 79.5026 16.5781 79.6719 16.9141C79.8438 17.2474 79.9297 17.6719 79.9297 18.1875V22H79.0078V18.25C79.0078 17.7734 78.8841 17.4049 78.6367 17.1445C78.3919 16.8815 78.0521 16.75 77.6172 16.75C77.3151 16.75 77.0443 16.8138 76.8047 16.9414C76.5677 17.069 76.3802 17.2552 76.2422 17.5C76.1068 17.7448 76.0391 18.0417 76.0391 18.3906ZM85.7568 22V22.8594H80.7568V22H85.7568ZM91.0898 16C91.043 15.6042 90.8529 15.2969 90.5195 15.0781C90.1862 14.8594 89.7773 14.75 89.293 14.75C88.9388 14.75 88.6289 14.8073 88.3633 14.9219C88.1003 15.0365 87.8945 15.194 87.7461 15.3945C87.6003 15.5951 87.5273 15.8229 87.5273 16.0781C87.5273 16.2917 87.5781 16.4753 87.6797 16.6289C87.7839 16.7799 87.9167 16.9062 88.0781 17.0078C88.2396 17.1068 88.4089 17.1888 88.5859 17.2539C88.763 17.3164 88.9258 17.3672 89.0742 17.4062L89.8867 17.625C90.0951 17.6797 90.3268 17.7552 90.582 17.8516C90.8398 17.9479 91.0859 18.0794 91.3203 18.2461C91.5573 18.4102 91.7526 18.6211 91.9063 18.8789C92.0599 19.1367 92.1367 19.4531 92.1367 19.8281C92.1367 20.2604 92.0234 20.651 91.7969 21C91.5729 21.349 91.2448 21.6263 90.8125 21.832C90.3828 22.0378 89.8607 22.1406 89.2461 22.1406C88.6732 22.1406 88.1771 22.0482 87.7578 21.8633C87.3411 21.6784 87.013 21.4206 86.7734 21.0898C86.5365 20.7591 86.4023 20.375 86.3711 19.9375H87.3711C87.3971 20.2396 87.4987 20.4896 87.6758 20.6875C87.8555 20.8828 88.082 21.0286 88.3555 21.125C88.6315 21.2187 88.9284 21.2656 89.2461 21.2656C89.6159 21.2656 89.9479 21.2057 90.2422 21.0859C90.5365 20.9635 90.7695 20.7943 90.9414 20.5781C91.1133 20.3594 91.1992 20.1042 91.1992 19.8125C91.1992 19.5469 91.125 19.3307 90.9766 19.1641C90.8281 18.9974 90.6328 18.862 90.3906 18.7578C90.1484 18.6536 89.8867 18.5625 89.6055 18.4844L88.6211 18.2031C87.9961 18.0234 87.5013 17.7669 87.1367 17.4336C86.7721 17.1003 86.5898 16.6641 86.5898 16.125C86.5898 15.6771 86.7109 15.2865 86.9531 14.9531C87.1979 14.6172 87.526 14.3568 87.9375 14.1719C88.3516 13.9844 88.8138 13.8906 89.3242 13.8906C89.8398 13.8906 90.2982 13.9831 90.6992 14.168C91.1003 14.3503 91.418 14.6003 91.6523 14.918C91.8893 15.2357 92.0143 15.5964 92.0273 16H91.0898ZM96.042 22.125C95.4795 22.125 94.9951 21.9922 94.5889 21.7266C94.1826 21.4609 93.8701 21.0951 93.6514 20.6289C93.4326 20.1628 93.3232 19.6302 93.3232 19.0312C93.3232 18.4219 93.4352 17.8841 93.6592 17.418C93.8857 16.9492 94.2008 16.5833 94.6045 16.3203C95.0107 16.0547 95.4847 15.9219 96.0264 15.9219C96.4482 15.9219 96.8285 16 97.167 16.1562C97.5055 16.3125 97.7829 16.5312 97.999 16.8125C98.2152 17.0937 98.3493 17.4219 98.4014 17.7969H97.4795C97.4092 17.5234 97.2529 17.2812 97.0107 17.0703C96.7712 16.8568 96.4482 16.75 96.042 16.75C95.6826 16.75 95.3675 16.8437 95.0967 17.0312C94.8285 17.2161 94.6188 17.4779 94.4678 17.8164C94.3193 18.1523 94.2451 18.5469 94.2451 19C94.2451 19.4635 94.318 19.8672 94.4639 20.2109C94.6123 20.5547 94.8206 20.8216 95.0889 21.0117C95.3597 21.2018 95.6774 21.2969 96.042 21.2969C96.2816 21.2969 96.499 21.2552 96.6943 21.1719C96.8896 21.0885 97.055 20.9688 97.1904 20.8125C97.3258 20.6562 97.4222 20.4687 97.4795 20.25H98.4014C98.3493 20.6042 98.2204 20.9232 98.0146 21.207C97.8115 21.4883 97.542 21.7122 97.2061 21.8789C96.8727 22.043 96.4847 22.125 96.042 22.125ZM99.749 22V16H100.64V16.9062H100.702C100.812 16.6094 101.009 16.3685 101.296 16.1836C101.582 15.9987 101.905 15.9062 102.265 15.9062C102.332 15.9062 102.417 15.9076 102.519 15.9102C102.62 15.9128 102.697 15.9167 102.749 15.9219V16.8594C102.718 16.8516 102.646 16.8398 102.534 16.8242C102.425 16.806 102.309 16.7969 102.187 16.7969C101.895 16.7969 101.634 16.8581 101.405 16.9805C101.179 17.1003 100.999 17.2669 100.866 17.4805C100.736 17.6914 100.671 17.9323 100.671 18.2031V22H99.749ZM106.175 22.125C105.597 22.125 105.098 21.9974 104.679 21.7422C104.262 21.4844 103.94 21.125 103.714 20.6641C103.49 20.2005 103.378 19.6615 103.378 19.0469C103.378 18.4323 103.49 17.8906 103.714 17.4219C103.94 16.9505 104.256 16.5833 104.659 16.3203C105.065 16.0547 105.539 15.9219 106.081 15.9219C106.394 15.9219 106.702 15.974 107.007 16.0781C107.312 16.1823 107.589 16.3516 107.839 16.5859C108.089 16.8177 108.288 17.125 108.437 17.5078C108.585 17.8906 108.659 18.362 108.659 18.9219V19.3125H104.034V18.5156H107.722C107.722 18.1771 107.654 17.875 107.519 17.6094C107.386 17.3437 107.196 17.1341 106.948 16.9805C106.703 16.8268 106.414 16.75 106.081 16.75C105.714 16.75 105.396 16.8411 105.128 17.0234C104.862 17.2031 104.658 17.4375 104.515 17.7266C104.371 18.0156 104.3 18.3255 104.3 18.6562V19.1875C104.3 19.6406 104.378 20.0247 104.534 20.3398C104.693 20.6523 104.913 20.8906 105.194 21.0547C105.476 21.2161 105.802 21.2969 106.175 21.2969C106.417 21.2969 106.636 21.263 106.831 21.1953C107.029 21.125 107.2 21.0208 107.343 20.8828C107.486 20.7422 107.597 20.5677 107.675 20.3594L108.565 20.6094C108.472 20.9115 108.314 21.1771 108.093 21.4062C107.871 21.6328 107.598 21.8099 107.272 21.9375C106.947 22.0625 106.581 22.125 106.175 22.125ZM112.577 22.125C111.999 22.125 111.5 21.9974 111.081 21.7422C110.664 21.4844 110.343 21.125 110.116 20.6641C109.892 20.2005 109.78 19.6615 109.78 19.0469C109.78 18.4323 109.892 17.8906 110.116 17.4219C110.343 16.9505 110.658 16.5833 111.062 16.3203C111.468 16.0547 111.942 15.9219 112.483 15.9219C112.796 15.9219 113.104 15.974 113.409 16.0781C113.714 16.1823 113.991 16.3516 114.241 16.5859C114.491 16.8177 114.69 17.125 114.839 17.5078C114.987 17.8906 115.062 18.362 115.062 18.9219V19.3125H110.437V18.5156H114.124C114.124 18.1771 114.056 17.875 113.921 17.6094C113.788 17.3437 113.598 17.1341 113.351 16.9805C113.106 16.8268 112.817 16.75 112.483 16.75C112.116 16.75 111.799 16.8411 111.53 17.0234C111.265 17.2031 111.06 17.4375 110.917 17.7266C110.774 18.0156 110.702 18.3255 110.702 18.6562V19.1875C110.702 19.6406 110.78 20.0247 110.937 20.3398C111.095 20.6523 111.315 20.8906 111.597 21.0547C111.878 21.2161 112.205 21.2969 112.577 21.2969C112.819 21.2969 113.038 21.263 113.233 21.1953C113.431 21.125 113.602 21.0208 113.745 20.8828C113.888 20.7422 113.999 20.5677 114.077 20.3594L114.968 20.6094C114.874 20.9115 114.716 21.1771 114.495 21.4062C114.274 21.6328 114 21.8099 113.675 21.9375C113.349 22.0625 112.983 22.125 112.577 22.125ZM117.386 18.3906V22H116.464V16H117.354V16.9375H117.433C117.573 16.6328 117.787 16.388 118.073 16.2031C118.36 16.0156 118.729 15.9219 119.183 15.9219C119.589 15.9219 119.944 16.0052 120.249 16.1719C120.554 16.3359 120.791 16.5859 120.96 16.9219C121.129 17.2552 121.214 17.6771 121.214 18.1875V22H120.292V18.25C120.292 17.7786 120.17 17.4115 119.925 17.1484C119.68 16.8828 119.344 16.75 118.917 16.75C118.623 16.75 118.36 16.8138 118.128 16.9414C117.899 17.069 117.718 17.2552 117.585 17.5C117.452 17.7448 117.386 18.0417 117.386 18.3906Z" fill="black"/>
</svg>
